<svg style="height: 44px;max-width: 100%;max-height: 100%;width: 100%;margin-top: 4px;" version="1.1" viewBox="0 0 149.39 22.822" xmlns="http://www.w3.org/2000/svg">
 <defs>
  <style>.cls-2{fill-rule:evenodd;}</style>
 </defs>
 <g fill="#010101" class="">
  <path class="cls-1" d="m9 4.0032-2.71 5.5h-1.29l-2.75-5.5v6.33h-2.25v-10.06h3l2.63 5.53 2.6-5.53h3v10.06h-2.23z"></path>
  <path class="cls-1" d="m16.75 7.7432a1.84 1.84 0 0 0 1.51 0.7 1.82 1.82 0 0 0 1.5-0.7 3 3 0 0 0 0.55-1.91v-5.56h2.24v5.63a4.47 4.47 0 0 1-1.21 3.36 4.26 4.26 0 0 1-3.09 1.17 4.27 4.27 0 0 1-3.1-1.18 4.46 4.46 0 0 1-1.2-3.35v-5.63h2.24v5.56a3 3 0 0 0 0.56 1.91z"></path>
  <path class="cls-1" d="m27.49 2.2832a0.87 0.87 0 0 0-0.32 0.71 0.8 0.8 0 0 0 0.4 0.7 7.23 7.23 0 0 0 1.83 0.61 5.15 5.15 0 0 1 2.22 1.06 2.61 2.61 0 0 1 0.79 2.06 2.72 2.72 0 0 1-1 2.19 4 4 0 0 1-2.67 0.84 6.18 6.18 0 0 1-4.3-1.77l1.32-1.68a4.76 4.76 0 0 0 3 1.42 1.58 1.58 0 0 0 1-0.27 0.86 0.86 0 0 0 0.35-0.72 0.84 0.84 0 0 0-0.37-0.72 4.9 4.9 0 0 0-1.48-0.54 6.45 6.45 0 0 1-2.57-1.09 2.57 2.57 0 0 1-0.84-2.08 2.6 2.6 0 0 1 1-2.21 4.14 4.14 0 0 1 2.6-0.79 6.19 6.19 0 0 1 2 0.35 5.4 5.4 0 0 1 1.76 1l-1.13 1.65a4.43 4.43 0 0 0-2.71-1 1.35 1.35 0 0 0-0.88 0.28z"></path>
  <path class="cls-1" d="m34.67 0.27321h2.24v10.06h-2.24z"></path>
  <path class="cls-1" d="m44.39 8.3532a3.31 3.31 0 0 0 2.7-1.35l1.44 1.48a5.43 5.43 0 0 1-7.86 0.52 5 5 0 0 1-1.5-3.71 5 5 0 0 1 1.53-3.75 5.16 5.16 0 0 1 3.75-1.54 5.31 5.31 0 0 1 4.14 1.89l-1.39 1.62a3.27 3.27 0 0 0-2.65-1.32 3.09 3.09 0 0 0-2.17 0.81 2.88 2.88 0 0 0-0.9 2.23 3 3 0 0 0 0.85 2.25 2.8 2.8 0 0 0 2.06 0.87z"></path>
  <path class="cls-1" d="m50.58 10.223v-10.06h2.25v8.06h4.29v2z"></path>
  <path class="cls-1" d="m66.73 10.223-0.94-2.22h-4.21l-0.94 2.17h-2.39l4.35-10.01h2.17l4.35 10.06zm-3-7.07-1.3 2.92h2.52z"></path>
  <path class="cls-1" d="m75.08 10.223h-4.4v-10.06h3.91a5.64 5.64 0 0 1 1.76 0.24 2.53 2.53 0 0 1 1.12 0.66 2.6 2.6 0 0 1 0.68 1.76 2.06 2.06 0 0 1-0.76 1.76 2.74 2.74 0 0 1-0.36 0.25l-0.37 0.17a2.64 2.64 0 0 1 1.49 0.84 2.35 2.35 0 0 1 0.55 1.59 2.7 2.7 0 0 1-0.7 1.85 3.76 3.76 0 0 1-2.92 0.94zm-2.16-6h1.08a3.61 3.61 0 0 0 1.38-0.22 0.85 0.85 0 0 0 0.45-0.87 0.9 0.9 0 0 0-0.42-0.88 3.31 3.31 0 0 0-1.41-0.19h-1.08zm0 4.09h1.54a3.41 3.41 0 0 0 1.45-0.24 0.94 0.94 0 0 0 0.48-0.94 0.9 0.9 0 0 0-0.51-0.92 4.38 4.38 0 0 0-1.63-0.21h-1.33z"></path>
  <path class="cls-2" d="m145.2 10.593a2.67 2.67 0 0 0 0.74 0.85 2.13 2.13 0 0 0 1 0.37 2.32 2.32 0 0 0 2-0.79 2 2 0 0 0-1.06-3.2l-11-3a0.93 0.93 0 0 0-0.94 0.29l-0.68 0.68a1.22 1.22 0 0 1-0.86 0.35h-24.4a0.33 0.33 0 0 0-0.32 0.33l0.06 3.6a0.32 0.32 0 0 0 0.34 0.32l25.12-1a2.46 2.46 0 0 1 1.5 0.44l0.13 0.11 1.1 1.15a0.77 0.77 0 0 0 0.29 0.2 0.82 0.82 0 0 0 0.43 0c0.94-0.18 3.19-0.73 4.42-0.95 1.74-0.31 2.08 0.22 2.1 0.25s-0.04-0.13 0.03 0z" fill-rule="evenodd"></path>
  <circle class="cls-1" transform="rotate(-.91)" cx="147.93" cy="8.8317" r=".84"></circle>
  <circle class="cls-1" transform="rotate(-.91)" cx="146.03" cy="8.2817" r=".84"></circle>
  <circle class="cls-1" transform="rotate(-.91)" cx="144.14" cy="7.7319" r=".84"></circle>
  <circle class="cls-1" transform="rotate(-.91)" cx="142.25" cy="7.1819" r=".84"></circle>
  <circle class="cls-1" transform="rotate(-.91)" cx="140.35" cy="6.6322" r=".84"></circle>
  <circle class="cls-1" transform="rotate(-.91)" cx="138.47" cy="6.0822" r=".84"></circle>
  <path class="cls-1" d="m108.46 12.063a3.34 3.34 0 0 0 2.83 3.11c0.48 0.11 2.23 0.32 2.57 0.45a1.07 1.07 0 0 1 0.73 1 1.73 1.73 0 0 1-0.77 1.29 6.07 6.07 0 0 1-3.63 1 18.89 18.89 0 0 1-5.19-0.91c-1.65-0.46-3.25-1.26-5-1.26a3.83 3.83 0 0 0-2.4 0.86 22 22 0 0 0-1.92 1.66 13.05 13.05 0 0 1-5.3 3.27 9.7 9.7 0 0 1-3.09 0.26 9.45 9.45 0 0 1-3-0.65 7.88 7.88 0 0 1-4.06-3.61 16.5 16.5 0 0 1-1.65-7.29 1 1 0 0 1 1-1l27.93 0.05a0.91 0.91 0 0 1 0.91 0.89c0.04 0.31 0.04 0.67 0.04 0.88z"></path>
  <rect class="cls-1" transform="rotate(-89.89)" x="-8.6831" y="104.87" width="8.83" height="1.73" rx=".31" ry=".31"></rect>
  <rect class="cls-1" transform="rotate(-89.89)" x="-8.6871" y="101.73" width="8.83" height="1.73" rx=".31" ry=".31"></rect>
  <rect class="cls-1" transform="rotate(-89.89)" x="-8.6812" y="98.599" width="8.83" height="1.73" rx=".31" ry=".31"></rect>
  <rect class="cls-1" transform="rotate(-89.89)" x="-8.6733" y="86.736" width="8.83" height="1.73" rx=".31" ry=".31"></rect>
  <rect class="cls-1" transform="rotate(-89.89)" x="-8.6792" y="83.61" width="8.83" height="1.73" rx=".31" ry=".31"></rect>
  <rect class="cls-1" transform="rotate(-89.89)" x="-8.6753" y="80.474" width="8.83" height="1.73" rx=".31" ry=".31"></rect>
  <rect class="cls-1" transform="rotate(-89.89)" x="-8.6698" y="94.231" width="8.83" height="1.73" rx=".31" ry=".31"></rect>
  <rect class="cls-1" transform="rotate(-89.89)" x="-8.6858" y="91.095" width="8.83" height="1.73" rx=".31" ry=".31"></rect>
 </g>
</svg>
